<?xml version="1.0" encoding="UTF-8"?><!DOCTYPE svg PUBLIC "-//W3C//DTD SVG 1.1//EN" "http://www.w3.org/Graphics/SVG/1.1/DTD/svg11.dtd"><svg xmlns="http://www.w3.org/2000/svg" xmlns:xlink="http://www.w3.org/1999/xlink"><symbol id="bell"><g fill="none"><path d="M18 15.023a.884.884 0 0 1-.884.884H.884a.884.884 0 0 1 0-1.768H.9V7.981C.9 3.573 4.527 0 9 0s8.1 3.573 8.1 7.98v6.16h.016c.488 0 .884.395.884.883ZM2.7 14.14h12.6V7.98c0-3.43-2.82-6.213-6.3-6.213S2.7 4.55 2.7 7.981v6.159Zm4.276 3.616c-.245-.495.222-.965.774-.965h2.5c.552 0 1.019.47.774.965a2.21 2.21 0 0 1-.433.597A2.271 2.271 0 0 1 9 19a2.271 2.271 0 0 1-1.591-.647 2.209 2.209 0 0 1-.433-.597Z" fill="#777E91"/></g></symbol><symbol id="zoom"><g fill="none"><path fill-rule="evenodd" clip-rule="evenodd" d="M11.421 12.6a6.667 6.667 0 1 1 1.178-1.178l4.49 4.49a.833.833 0 0 1-1.178 1.178l-4.49-4.49Zm.912-5.266a5 5 0 1 1-10 0 5 5 0 0 1 10 0Z" fill="#777E91"/></g></symbol></svg>